<?xml version="1.0" encoding="UTF-8" standalone="no"?>
<!DOCTYPE svg PUBLIC "-//W3C//DTD SVG 1.1//EN"
 "http://www.w3.org/Graphics/SVG/1.1/DTD/svg11.dtd">
<!-- Generated by graphviz version 9.0.0 (20230911.1827)
 -->
<!-- Pages: 1 -->
<svg width="1263pt" height="745pt"
 viewBox="0.00 0.00 1263.41 744.57" xmlns="http://www.w3.org/2000/svg" xmlns:xlink="http://www.w3.org/1999/xlink">
<g id="graph0" class="graph" transform="scale(1 1) rotate(0) translate(4 740.57)">
<polygon fill="white" stroke="none" points="-4,4 -4,-740.57 1259.41,-740.57 1259.41,4 -4,4"/>
<!-- &#45;8697187352636931887 -->
<g id="node1" class="node">
<title>&#45;8697187352636931887</title>
<ellipse fill="none" stroke="black" cx="28.5" cy="-457.62" rx="25.02" ry="25.02"/>
<text text-anchor="middle" x="28.5" y="-451.82" font-family="Helvetica,sans-Serif" font-size="14.00">add</text>
</g>
<!-- &#45;7646505010600958204 -->
<g id="node2" class="node">
<title>&#45;7646505010600958204</title>
<polygon fill="none" stroke="black" points="55.5,-578.52 1.5,-578.52 1.5,-542.52 55.5,-542.52 55.5,-578.52"/>
<text text-anchor="middle" x="28.5" y="-554.72" font-family="Helvetica,sans-Serif" font-size="14.00">(0, 0)</text>
</g>
<!-- &#45;8697187352636931887&#45;&gt;&#45;7646505010600958204 -->
<g id="edge1" class="edge">
<title>&#45;8697187352636931887&#45;&gt;&#45;7646505010600958204</title>
<path fill="none" stroke="black" d="M28.5,-483.04C28.5,-497.49 28.5,-515.87 28.5,-530.99"/>
<polygon fill="black" stroke="black" points="25.01,-530.76 28.5,-540.76 32.01,-530.76 25.01,-530.76"/>
</g>
<!-- &#45;3874085723076636144 -->
<g id="node3" class="node">
<title>&#45;3874085723076636144</title>
<polygon fill="none" stroke="black" points="85.5,-166.89 31.5,-166.89 31.5,-130.89 85.5,-130.89 85.5,-166.89"/>
<text text-anchor="middle" x="58.5" y="-143.09" font-family="Helvetica,sans-Serif" font-size="14.00">(0, 0)</text>
</g>
<!-- &#45;3874085723076636144&#45;&gt;&#45;8697187352636931887 -->
<g id="edge2" class="edge">
<title>&#45;3874085723076636144&#45;&gt;&#45;8697187352636931887</title>
<path fill="none" stroke="black" d="M39.03,-166.97C29.68,-176.49 19.46,-189.17 14.5,-202.89 -12.46,-277.58 5.41,-372.66 18.4,-422.54"/>
<polygon fill="black" stroke="black" points="14.94,-423.14 20.93,-431.88 21.7,-421.32 14.94,-423.14"/>
</g>
<!-- &#45;3812615287685019848 -->
<g id="node46" class="node">
<title>&#45;3812615287685019848</title>
<ellipse fill="none" stroke="black" cx="72.5" cy="-251.8" rx="48.91" ry="48.91"/>
<text text-anchor="middle" x="72.5" y="-246" font-family="Helvetica,sans-Serif" font-size="14.00">transpose</text>
</g>
<!-- &#45;3874085723076636144&#45;&gt;&#45;3812615287685019848 -->
<g id="edge38" class="edge">
<title>&#45;3874085723076636144&#45;&gt;&#45;3812615287685019848</title>
<path fill="none" stroke="black" d="M60.88,-167.01C61.87,-174.12 63.08,-182.84 64.34,-191.93"/>
<polygon fill="black" stroke="black" points="60.84,-192.2 65.68,-201.63 67.78,-191.24 60.84,-192.2"/>
</g>
<!-- &#45;4861943135758692822 -->
<g id="node4" class="node">
<title>&#45;4861943135758692822</title>
<polygon fill="none" stroke="black" points="88.5,-372.71 34.5,-372.71 34.5,-336.71 88.5,-336.71 88.5,-372.71"/>
<text text-anchor="middle" x="61.5" y="-348.91" font-family="Helvetica,sans-Serif" font-size="14.00">(0, 0)</text>
</g>
<!-- &#45;4861943135758692822&#45;&gt;&#45;8697187352636931887 -->
<g id="edge3" class="edge">
<title>&#45;4861943135758692822&#45;&gt;&#45;8697187352636931887</title>
<path fill="none" stroke="black" d="M55.91,-372.83C51.44,-386.48 45.05,-406.03 39.56,-422.81"/>
<polygon fill="black" stroke="black" points="36.37,-421.32 36.59,-431.91 43.02,-423.49 36.37,-421.32"/>
</g>
<!-- 8945429815924046687 -->
<g id="node5" class="node">
<title>8945429815924046687</title>
<ellipse fill="none" stroke="black" cx="254.5" cy="-457.62" rx="25.02" ry="25.02"/>
<text text-anchor="middle" x="254.5" y="-451.82" font-family="Helvetica,sans-Serif" font-size="14.00">add</text>
</g>
<!-- &#45;1138864254498959779 -->
<g id="node6" class="node">
<title>&#45;1138864254498959779</title>
<polygon fill="none" stroke="black" points="281.5,-578.52 227.5,-578.52 227.5,-542.52 281.5,-542.52 281.5,-578.52"/>
<text text-anchor="middle" x="254.5" y="-554.72" font-family="Helvetica,sans-Serif" font-size="14.00">(0, 1)</text>
</g>
<!-- 8945429815924046687&#45;&gt;&#45;1138864254498959779 -->
<g id="edge4" class="edge">
<title>8945429815924046687&#45;&gt;&#45;1138864254498959779</title>
<path fill="none" stroke="black" d="M254.5,-483.04C254.5,-497.49 254.5,-515.87 254.5,-530.99"/>
<polygon fill="black" stroke="black" points="251.01,-530.76 254.5,-540.76 258.01,-530.76 251.01,-530.76"/>
</g>
<!-- &#45;8767159752049332510 -->
<g id="node7" class="node">
<title>&#45;8767159752049332510</title>
<polygon fill="none" stroke="black" points="373.5,-372.71 319.5,-372.71 319.5,-336.71 373.5,-336.71 373.5,-372.71"/>
<text text-anchor="middle" x="346.5" y="-348.91" font-family="Helvetica,sans-Serif" font-size="14.00">(0, 1)</text>
</g>
<!-- &#45;8767159752049332510&#45;&gt;8945429815924046687 -->
<g id="edge5" class="edge">
<title>&#45;8767159752049332510&#45;&gt;8945429815924046687</title>
<path fill="none" stroke="black" d="M325.36,-373.1C313.89,-383 299.8,-395.93 288.5,-408.71 283.63,-414.22 278.8,-420.44 274.38,-426.52"/>
<polygon fill="black" stroke="black" points="271.58,-424.41 268.69,-434.61 277.31,-428.44 271.58,-424.41"/>
</g>
<!-- 5887381090334330637 -->
<g id="node49" class="node">
<title>5887381090334330637</title>
<ellipse fill="none" stroke="black" cx="346.5" cy="-457.62" rx="48.91" ry="48.91"/>
<text text-anchor="middle" x="346.5" y="-451.82" font-family="Helvetica,sans-Serif" font-size="14.00">transpose</text>
</g>
<!-- &#45;8767159752049332510&#45;&gt;5887381090334330637 -->
<g id="edge44" class="edge">
<title>&#45;8767159752049332510&#45;&gt;5887381090334330637</title>
<path fill="none" stroke="black" d="M346.5,-372.83C346.5,-379.78 346.5,-388.27 346.5,-397.15"/>
<polygon fill="black" stroke="black" points="343.01,-396.99 346.5,-406.99 350.01,-396.99 343.01,-396.99"/>
</g>
<!-- 1645697620343305603 -->
<g id="node8" class="node">
<title>1645697620343305603</title>
<polygon fill="none" stroke="black" points="281.5,-372.71 227.5,-372.71 227.5,-336.71 281.5,-336.71 281.5,-372.71"/>
<text text-anchor="middle" x="254.5" y="-348.91" font-family="Helvetica,sans-Serif" font-size="14.00">(0, 1)</text>
</g>
<!-- 1645697620343305603&#45;&gt;8945429815924046687 -->
<g id="edge6" class="edge">
<title>1645697620343305603&#45;&gt;8945429815924046687</title>
<path fill="none" stroke="black" d="M254.5,-372.83C254.5,-385.95 254.5,-404.51 254.5,-420.84"/>
<polygon fill="black" stroke="black" points="251.01,-420.7 254.5,-430.7 258.01,-420.7 251.01,-420.7"/>
</g>
<!-- 6576372588828271470 -->
<g id="node9" class="node">
<title>6576372588828271470</title>
<ellipse fill="none" stroke="black" cx="520.5" cy="-457.62" rx="25.02" ry="25.02"/>
<text text-anchor="middle" x="520.5" y="-451.82" font-family="Helvetica,sans-Serif" font-size="14.00">add</text>
</g>
<!-- 8016448407253527343 -->
<g id="node10" class="node">
<title>8016448407253527343</title>
<polygon fill="none" stroke="black" points="547.5,-578.52 493.5,-578.52 493.5,-542.52 547.5,-542.52 547.5,-578.52"/>
<text text-anchor="middle" x="520.5" y="-554.72" font-family="Helvetica,sans-Serif" font-size="14.00">(0, 2)</text>
</g>
<!-- 6576372588828271470&#45;&gt;8016448407253527343 -->
<g id="edge7" class="edge">
<title>6576372588828271470&#45;&gt;8016448407253527343</title>
<path fill="none" stroke="black" d="M520.5,-483.04C520.5,-497.49 520.5,-515.87 520.5,-530.99"/>
<polygon fill="black" stroke="black" points="517.01,-530.76 520.5,-540.76 524.01,-530.76 517.01,-530.76"/>
</g>
<!-- &#45;2259518995947334085 -->
<g id="node11" class="node">
<title>&#45;2259518995947334085</title>
<polygon fill="none" stroke="black" points="639.5,-372.71 585.5,-372.71 585.5,-336.71 639.5,-336.71 639.5,-372.71"/>
<text text-anchor="middle" x="612.5" y="-348.91" font-family="Helvetica,sans-Serif" font-size="14.00">(0, 2)</text>
</g>
<!-- &#45;2259518995947334085&#45;&gt;6576372588828271470 -->
<g id="edge8" class="edge">
<title>&#45;2259518995947334085&#45;&gt;6576372588828271470</title>
<path fill="none" stroke="black" d="M591.36,-373.1C579.89,-383 565.8,-395.93 554.5,-408.71 549.63,-414.22 544.8,-420.44 540.38,-426.52"/>
<polygon fill="black" stroke="black" points="537.58,-424.41 534.69,-434.61 543.31,-428.44 537.58,-424.41"/>
</g>
<!-- &#45;839638251897899426 -->
<g id="node52" class="node">
<title>&#45;839638251897899426</title>
<ellipse fill="none" stroke="black" cx="612.5" cy="-457.62" rx="48.91" ry="48.91"/>
<text text-anchor="middle" x="612.5" y="-451.82" font-family="Helvetica,sans-Serif" font-size="14.00">transpose</text>
</g>
<!-- &#45;2259518995947334085&#45;&gt;&#45;839638251897899426 -->
<g id="edge50" class="edge">
<title>&#45;2259518995947334085&#45;&gt;&#45;839638251897899426</title>
<path fill="none" stroke="black" d="M612.5,-372.83C612.5,-379.78 612.5,-388.27 612.5,-397.15"/>
<polygon fill="black" stroke="black" points="609.01,-396.99 612.5,-406.99 616.01,-396.99 609.01,-396.99"/>
</g>
<!-- &#45;3247376408629390763 -->
<g id="node12" class="node">
<title>&#45;3247376408629390763</title>
<polygon fill="none" stroke="black" points="547.5,-372.71 493.5,-372.71 493.5,-336.71 547.5,-336.71 547.5,-372.71"/>
<text text-anchor="middle" x="520.5" y="-348.91" font-family="Helvetica,sans-Serif" font-size="14.00">(0, 2)</text>
</g>
<!-- &#45;3247376408629390763&#45;&gt;6576372588828271470 -->
<g id="edge9" class="edge">
<title>&#45;3247376408629390763&#45;&gt;6576372588828271470</title>
<path fill="none" stroke="black" d="M520.5,-372.83C520.5,-385.95 520.5,-404.51 520.5,-420.84"/>
<polygon fill="black" stroke="black" points="517.01,-420.7 520.5,-430.7 524.01,-420.7 517.01,-420.7"/>
</g>
<!-- &#45;3745010674655972754 -->
<g id="node13" class="node">
<title>&#45;3745010674655972754</title>
<ellipse fill="none" stroke="black" cx="262.5" cy="-639.55" rx="25.02" ry="25.02"/>
<text text-anchor="middle" x="262.5" y="-633.75" font-family="Helvetica,sans-Serif" font-size="14.00">add</text>
</g>
<!-- &#45;4352987659533381195 -->
<g id="node14" class="node">
<title>&#45;4352987659533381195</title>
<polygon fill="none" stroke="black" points="289.5,-736.57 235.5,-736.57 235.5,-700.57 289.5,-700.57 289.5,-736.57"/>
<text text-anchor="middle" x="262.5" y="-712.77" font-family="Helvetica,sans-Serif" font-size="14.00">(1, 0)</text>
</g>
<!-- &#45;3745010674655972754&#45;&gt;&#45;4352987659533381195 -->
<g id="edge10" class="edge">
<title>&#45;3745010674655972754&#45;&gt;&#45;4352987659533381195</title>
<path fill="none" stroke="black" d="M262.5,-664.92C262.5,-672.53 262.5,-680.99 262.5,-688.87"/>
<polygon fill="black" stroke="black" points="259.01,-688.67 262.5,-698.67 266.01,-688.67 259.01,-688.67"/>
</g>
<!-- &#45;1912786186832513709 -->
<g id="node15" class="node">
<title>&#45;1912786186832513709</title>
<polygon fill="none" stroke="black" points="218.5,-166.89 164.5,-166.89 164.5,-130.89 218.5,-130.89 218.5,-166.89"/>
<text text-anchor="middle" x="191.5" y="-143.09" font-family="Helvetica,sans-Serif" font-size="14.00">(1, 0)</text>
</g>
<!-- &#45;1912786186832513709&#45;&gt;&#45;3745010674655972754 -->
<g id="edge11" class="edge">
<title>&#45;1912786186832513709&#45;&gt;&#45;3745010674655972754</title>
<path fill="none" stroke="black" d="M189.5,-167.31C185.63,-202.49 177.5,-284.54 177.5,-353.71 177.5,-353.71 177.5,-353.71 177.5,-458.62 177.5,-517.2 214.79,-577.11 239.98,-610.89"/>
<polygon fill="black" stroke="black" points="236.94,-612.69 245.8,-618.5 242.5,-608.43 236.94,-612.69"/>
</g>
<!-- &#45;4616742192833592890 -->
<g id="node47" class="node">
<title>&#45;4616742192833592890</title>
<ellipse fill="none" stroke="black" cx="254.5" cy="-251.8" rx="48.91" ry="48.91"/>
<text text-anchor="middle" x="254.5" y="-246" font-family="Helvetica,sans-Serif" font-size="14.00">transpose</text>
</g>
<!-- &#45;1912786186832513709&#45;&gt;&#45;4616742192833592890 -->
<g id="edge40" class="edge">
<title>&#45;1912786186832513709&#45;&gt;&#45;4616742192833592890</title>
<path fill="none" stroke="black" d="M202.19,-167.01C207.95,-176.24 215.4,-188.16 222.85,-200.1"/>
<polygon fill="black" stroke="black" points="219.73,-201.72 228,-208.35 225.67,-198.01 219.73,-201.72"/>
</g>
<!-- 4988205516205695230 -->
<g id="node16" class="node">
<title>4988205516205695230</title>
<polygon fill="none" stroke="black" points="363.5,-578.52 309.5,-578.52 309.5,-542.52 363.5,-542.52 363.5,-578.52"/>
<text text-anchor="middle" x="336.5" y="-554.72" font-family="Helvetica,sans-Serif" font-size="14.00">(1, 0)</text>
</g>
<!-- 4988205516205695230&#45;&gt;&#45;3745010674655972754 -->
<g id="edge12" class="edge">
<title>4988205516205695230&#45;&gt;&#45;3745010674655972754</title>
<path fill="none" stroke="black" d="M319.71,-579C310.13,-588.98 297.94,-601.67 287.28,-612.77"/>
<polygon fill="black" stroke="black" points="284.94,-610.14 280.53,-619.78 289.99,-614.99 284.94,-610.14"/>
</g>
<!-- 494308497782919854 -->
<g id="node17" class="node">
<title>494308497782919854</title>
<ellipse fill="none" stroke="black" cx="742.5" cy="-457.62" rx="25.02" ry="25.02"/>
<text text-anchor="middle" x="742.5" y="-451.82" font-family="Helvetica,sans-Serif" font-size="14.00">add</text>
</g>
<!-- 9200682385203474055 -->
<g id="node18" class="node">
<title>9200682385203474055</title>
<polygon fill="none" stroke="black" points="769.5,-578.52 715.5,-578.52 715.5,-542.52 769.5,-542.52 769.5,-578.52"/>
<text text-anchor="middle" x="742.5" y="-554.72" font-family="Helvetica,sans-Serif" font-size="14.00">(1, 1)</text>
</g>
<!-- 494308497782919854&#45;&gt;9200682385203474055 -->
<g id="edge13" class="edge">
<title>494308497782919854&#45;&gt;9200682385203474055</title>
<path fill="none" stroke="black" d="M742.5,-483.04C742.5,-497.49 742.5,-515.87 742.5,-530.99"/>
<polygon fill="black" stroke="black" points="739.01,-530.76 742.5,-540.76 746.01,-530.76 739.01,-530.76"/>
</g>
<!-- 7242526474919973413 -->
<g id="node19" class="node">
<title>7242526474919973413</title>
<polygon fill="none" stroke="black" points="775.5,-166.89 721.5,-166.89 721.5,-130.89 775.5,-130.89 775.5,-166.89"/>
<text text-anchor="middle" x="748.5" y="-143.09" font-family="Helvetica,sans-Serif" font-size="14.00">(1, 1)</text>
</g>
<!-- 7242526474919973413&#45;&gt;494308497782919854 -->
<g id="edge14" class="edge">
<title>7242526474919973413&#45;&gt;494308497782919854</title>
<path fill="none" stroke="black" d="M740.2,-167.1C735.76,-177.26 730.76,-190.51 728.5,-202.89 714.46,-279.87 726.6,-371.98 735.38,-421.3"/>
<polygon fill="black" stroke="black" points="731.93,-421.91 737.19,-431.11 738.82,-420.64 731.93,-421.91"/>
</g>
<!-- &#45;1962775103449099230 -->
<g id="node50" class="node">
<title>&#45;1962775103449099230</title>
<ellipse fill="none" stroke="black" cx="786.5" cy="-251.8" rx="48.91" ry="48.91"/>
<text text-anchor="middle" x="786.5" y="-246" font-family="Helvetica,sans-Serif" font-size="14.00">transpose</text>
</g>
<!-- 7242526474919973413&#45;&gt;&#45;1962775103449099230 -->
<g id="edge46" class="edge">
<title>7242526474919973413&#45;&gt;&#45;1962775103449099230</title>
<path fill="none" stroke="black" d="M754.95,-167.01C757.94,-174.94 761.67,-184.86 765.52,-195.07"/>
<polygon fill="black" stroke="black" points="762.2,-196.2 769,-204.32 768.75,-193.73 762.2,-196.2"/>
</g>
<!-- &#45;6950897801401857961 -->
<g id="node20" class="node">
<title>&#45;6950897801401857961</title>
<polygon fill="none" stroke="black" points="802.5,-372.71 748.5,-372.71 748.5,-336.71 802.5,-336.71 802.5,-372.71"/>
<text text-anchor="middle" x="775.5" y="-348.91" font-family="Helvetica,sans-Serif" font-size="14.00">(1, 1)</text>
</g>
<!-- &#45;6950897801401857961&#45;&gt;494308497782919854 -->
<g id="edge15" class="edge">
<title>&#45;6950897801401857961&#45;&gt;494308497782919854</title>
<path fill="none" stroke="black" d="M769.91,-372.83C765.44,-386.48 759.05,-406.03 753.56,-422.81"/>
<polygon fill="black" stroke="black" points="750.37,-421.32 750.59,-431.91 757.02,-423.49 750.37,-421.32"/>
</g>
<!-- 2302872123643399178 -->
<g id="node21" class="node">
<title>2302872123643399178</title>
<ellipse fill="none" stroke="black" cx="942.5" cy="-639.55" rx="25.02" ry="25.02"/>
<text text-anchor="middle" x="942.5" y="-633.75" font-family="Helvetica,sans-Serif" font-size="14.00">add</text>
</g>
<!-- &#45;7136778315388447264 -->
<g id="node22" class="node">
<title>&#45;7136778315388447264</title>
<polygon fill="none" stroke="black" points="969.5,-736.57 915.5,-736.57 915.5,-700.57 969.5,-700.57 969.5,-736.57"/>
<text text-anchor="middle" x="942.5" y="-712.77" font-family="Helvetica,sans-Serif" font-size="14.00">(1, 2)</text>
</g>
<!-- 2302872123643399178&#45;&gt;&#45;7136778315388447264 -->
<g id="edge16" class="edge">
<title>2302872123643399178&#45;&gt;&#45;7136778315388447264</title>
<path fill="none" stroke="black" d="M942.5,-664.92C942.5,-672.53 942.5,-680.99 942.5,-688.87"/>
<polygon fill="black" stroke="black" points="939.01,-688.67 942.5,-698.67 946.01,-688.67 939.01,-688.67"/>
</g>
<!-- 2204414860350629161 -->
<g id="node23" class="node">
<title>2204414860350629161</title>
<polygon fill="none" stroke="black" points="1049.5,-578.52 995.5,-578.52 995.5,-542.52 1049.5,-542.52 1049.5,-578.52"/>
<text text-anchor="middle" x="1022.5" y="-554.72" font-family="Helvetica,sans-Serif" font-size="14.00">(1, 2)</text>
</g>
<!-- 2204414860350629161&#45;&gt;2302872123643399178 -->
<g id="edge17" class="edge">
<title>2204414860350629161&#45;&gt;2302872123643399178</title>
<path fill="none" stroke="black" d="M1004.35,-579C993.74,-589.22 980.17,-602.28 968.45,-613.57"/>
<polygon fill="black" stroke="black" points="966.18,-610.9 961.4,-620.35 971.03,-615.94 966.18,-610.9"/>
</g>
<!-- &#45;4696576842687579778 -->
<g id="node24" class="node">
<title>&#45;4696576842687579778</title>
<polygon fill="none" stroke="black" points="947.5,-166.89 893.5,-166.89 893.5,-130.89 947.5,-130.89 947.5,-166.89"/>
<text text-anchor="middle" x="920.5" y="-143.09" font-family="Helvetica,sans-Serif" font-size="14.00">(1, 2)</text>
</g>
<!-- &#45;4696576842687579778&#45;&gt;2302872123643399178 -->
<g id="edge18" class="edge">
<title>&#45;4696576842687579778&#45;&gt;2302872123643399178</title>
<path fill="none" stroke="black" d="M904.7,-167.21C896.71,-176.98 887.63,-189.82 882.5,-202.89 857.84,-265.79 863.5,-286.15 863.5,-353.71 863.5,-353.71 863.5,-353.71 863.5,-458.62 863.5,-515.91 897.5,-575.46 920.89,-609.65"/>
<polygon fill="black" stroke="black" points="917.98,-611.6 926.59,-617.77 923.71,-607.58 917.98,-611.6"/>
</g>
<!-- &#45;6471084917227935765 -->
<g id="node53" class="node">
<title>&#45;6471084917227935765</title>
<ellipse fill="none" stroke="black" cx="940.5" cy="-251.8" rx="48.91" ry="48.91"/>
<text text-anchor="middle" x="940.5" y="-246" font-family="Helvetica,sans-Serif" font-size="14.00">transpose</text>
</g>
<!-- &#45;4696576842687579778&#45;&gt;&#45;6471084917227935765 -->
<g id="edge52" class="edge">
<title>&#45;4696576842687579778&#45;&gt;&#45;6471084917227935765</title>
<path fill="none" stroke="black" d="M923.9,-167.01C925.34,-174.28 927.11,-183.23 928.96,-192.54"/>
<polygon fill="black" stroke="black" points="925.47,-192.95 930.85,-202.08 932.34,-191.59 925.47,-192.95"/>
</g>
<!-- &#45;1091043585271479094 -->
<g id="node25" class="node">
<title>&#45;1091043585271479094</title>
<ellipse fill="none" stroke="black" cx="522.5" cy="-639.55" rx="25.02" ry="25.02"/>
<text text-anchor="middle" x="522.5" y="-633.75" font-family="Helvetica,sans-Serif" font-size="14.00">add</text>
</g>
<!-- 5497160992431006857 -->
<g id="node26" class="node">
<title>5497160992431006857</title>
<polygon fill="none" stroke="black" points="549.5,-736.57 495.5,-736.57 495.5,-700.57 549.5,-700.57 549.5,-736.57"/>
<text text-anchor="middle" x="522.5" y="-712.77" font-family="Helvetica,sans-Serif" font-size="14.00">(2, 0)</text>
</g>
<!-- &#45;1091043585271479094&#45;&gt;5497160992431006857 -->
<g id="edge19" class="edge">
<title>&#45;1091043585271479094&#45;&gt;5497160992431006857</title>
<path fill="none" stroke="black" d="M522.5,-664.92C522.5,-672.53 522.5,-680.99 522.5,-688.87"/>
<polygon fill="black" stroke="black" points="519.01,-688.67 522.5,-698.67 526.01,-688.67 519.01,-688.67"/>
</g>
<!-- 2551147669465449537 -->
<g id="node27" class="node">
<title>2551147669465449537</title>
<polygon fill="none" stroke="black" points="629.5,-578.52 575.5,-578.52 575.5,-542.52 629.5,-542.52 629.5,-578.52"/>
<text text-anchor="middle" x="602.5" y="-554.72" font-family="Helvetica,sans-Serif" font-size="14.00">(2, 0)</text>
</g>
<!-- 2551147669465449537&#45;&gt;&#45;1091043585271479094 -->
<g id="edge20" class="edge">
<title>2551147669465449537&#45;&gt;&#45;1091043585271479094</title>
<path fill="none" stroke="black" d="M584.35,-579C573.74,-589.22 560.17,-602.28 548.45,-613.57"/>
<polygon fill="black" stroke="black" points="546.18,-610.9 541.4,-620.35 551.03,-615.94 546.18,-610.9"/>
</g>
<!-- 3539005082147506215 -->
<g id="node28" class="node">
<title>3539005082147506215</title>
<polygon fill="none" stroke="black" points="508.5,-166.89 454.5,-166.89 454.5,-130.89 508.5,-130.89 508.5,-166.89"/>
<text text-anchor="middle" x="481.5" y="-143.09" font-family="Helvetica,sans-Serif" font-size="14.00">(2, 0)</text>
</g>
<!-- 3539005082147506215&#45;&gt;&#45;1091043585271479094 -->
<g id="edge21" class="edge">
<title>3539005082147506215&#45;&gt;&#45;1091043585271479094</title>
<path fill="none" stroke="black" d="M474.19,-167.27C470.17,-177.47 465.42,-190.72 462.5,-202.89 446.79,-268.6 443.5,-286.15 443.5,-353.71 443.5,-353.71 443.5,-353.71 443.5,-458.62 443.5,-515.91 477.5,-575.46 500.89,-609.65"/>
<polygon fill="black" stroke="black" points="497.98,-611.6 506.59,-617.77 503.71,-607.58 497.98,-611.6"/>
</g>
<!-- 954794794428754292 -->
<g id="node48" class="node">
<title>954794794428754292</title>
<ellipse fill="none" stroke="black" cx="520.5" cy="-251.8" rx="48.91" ry="48.91"/>
<text text-anchor="middle" x="520.5" y="-246" font-family="Helvetica,sans-Serif" font-size="14.00">transpose</text>
</g>
<!-- 3539005082147506215&#45;&gt;954794794428754292 -->
<g id="edge42" class="edge">
<title>3539005082147506215&#45;&gt;954794794428754292</title>
<path fill="none" stroke="black" d="M488.12,-167.01C491.19,-174.94 495.02,-184.86 498.96,-195.07"/>
<polygon fill="black" stroke="black" points="495.67,-196.26 502.54,-204.33 502.2,-193.74 495.67,-196.26"/>
</g>
<!-- 5115877423573368358 -->
<g id="node29" class="node">
<title>5115877423573368358</title>
<ellipse fill="none" stroke="black" cx="940.5" cy="-457.62" rx="25.02" ry="25.02"/>
<text text-anchor="middle" x="940.5" y="-451.82" font-family="Helvetica,sans-Serif" font-size="14.00">add</text>
</g>
<!-- 7606444365548637154 -->
<g id="node30" class="node">
<title>7606444365548637154</title>
<polygon fill="none" stroke="black" points="967.5,-578.52 913.5,-578.52 913.5,-542.52 967.5,-542.52 967.5,-578.52"/>
<text text-anchor="middle" x="940.5" y="-554.72" font-family="Helvetica,sans-Serif" font-size="14.00">(2, 1)</text>
</g>
<!-- 5115877423573368358&#45;&gt;7606444365548637154 -->
<g id="edge22" class="edge">
<title>5115877423573368358&#45;&gt;7606444365548637154</title>
<path fill="none" stroke="black" d="M940.5,-483.04C940.5,-497.49 940.5,-515.87 940.5,-530.99"/>
<polygon fill="black" stroke="black" points="937.01,-530.76 940.5,-540.76 944.01,-530.76 937.01,-530.76"/>
</g>
<!-- &#45;1354068946825190151 -->
<g id="node31" class="node">
<title>&#45;1354068946825190151</title>
<polygon fill="none" stroke="black" points="1059.5,-372.71 1005.5,-372.71 1005.5,-336.71 1059.5,-336.71 1059.5,-372.71"/>
<text text-anchor="middle" x="1032.5" y="-348.91" font-family="Helvetica,sans-Serif" font-size="14.00">(2, 1)</text>
</g>
<!-- &#45;1354068946825190151&#45;&gt;5115877423573368358 -->
<g id="edge23" class="edge">
<title>&#45;1354068946825190151&#45;&gt;5115877423573368358</title>
<path fill="none" stroke="black" d="M1011.36,-373.1C999.89,-383 985.8,-395.93 974.5,-408.71 969.63,-414.22 964.8,-420.44 960.38,-426.52"/>
<polygon fill="black" stroke="black" points="957.58,-424.41 954.69,-434.61 963.31,-428.44 957.58,-424.41"/>
</g>
<!-- &#45;2999614515721419873 -->
<g id="node51" class="node">
<title>&#45;2999614515721419873</title>
<ellipse fill="none" stroke="black" cx="1032.5" cy="-457.62" rx="48.91" ry="48.91"/>
<text text-anchor="middle" x="1032.5" y="-451.82" font-family="Helvetica,sans-Serif" font-size="14.00">transpose</text>
</g>
<!-- &#45;1354068946825190151&#45;&gt;&#45;2999614515721419873 -->
<g id="edge48" class="edge">
<title>&#45;1354068946825190151&#45;&gt;&#45;2999614515721419873</title>
<path fill="none" stroke="black" d="M1032.5,-372.83C1032.5,-379.78 1032.5,-388.27 1032.5,-397.15"/>
<polygon fill="black" stroke="black" points="1029.01,-396.99 1032.5,-406.99 1036.01,-396.99 1029.01,-396.99"/>
</g>
<!-- 9058788425567447962 -->
<g id="node32" class="node">
<title>9058788425567447962</title>
<polygon fill="none" stroke="black" points="967.5,-372.71 913.5,-372.71 913.5,-336.71 967.5,-336.71 967.5,-372.71"/>
<text text-anchor="middle" x="940.5" y="-348.91" font-family="Helvetica,sans-Serif" font-size="14.00">(2, 1)</text>
</g>
<!-- 9058788425567447962&#45;&gt;5115877423573368358 -->
<g id="edge24" class="edge">
<title>9058788425567447962&#45;&gt;5115877423573368358</title>
<path fill="none" stroke="black" d="M940.5,-372.83C940.5,-385.95 940.5,-404.51 940.5,-420.84"/>
<polygon fill="black" stroke="black" points="937.01,-420.7 940.5,-430.7 944.01,-420.7 937.01,-420.7"/>
</g>
<!-- 4956839213027892838 -->
<g id="node33" class="node">
<title>4956839213027892838</title>
<ellipse fill="none" stroke="black" cx="1156.5" cy="-457.62" rx="25.02" ry="25.02"/>
<text text-anchor="middle" x="1156.5" y="-451.82" font-family="Helvetica,sans-Serif" font-size="14.00">add</text>
</g>
<!-- 2713370336575940788 -->
<g id="node34" class="node">
<title>2713370336575940788</title>
<polygon fill="none" stroke="black" points="1183.5,-578.52 1129.5,-578.52 1129.5,-542.52 1183.5,-542.52 1183.5,-578.52"/>
<text text-anchor="middle" x="1156.5" y="-554.72" font-family="Helvetica,sans-Serif" font-size="14.00">(2, 2)</text>
</g>
<!-- 4956839213027892838&#45;&gt;2713370336575940788 -->
<g id="edge25" class="edge">
<title>4956839213027892838&#45;&gt;2713370336575940788</title>
<path fill="none" stroke="black" d="M1156.5,-483.04C1156.5,-497.49 1156.5,-515.87 1156.5,-530.99"/>
<polygon fill="black" stroke="black" points="1153.01,-530.76 1156.5,-540.76 1160.01,-530.76 1153.01,-530.76"/>
</g>
<!-- 5153571809276808274 -->
<g id="node35" class="node">
<title>5153571809276808274</title>
<polygon fill="none" stroke="black" points="1194.5,-166.89 1140.5,-166.89 1140.5,-130.89 1194.5,-130.89 1194.5,-166.89"/>
<text text-anchor="middle" x="1167.5" y="-143.09" font-family="Helvetica,sans-Serif" font-size="14.00">(2, 2)</text>
</g>
<!-- 5153571809276808274&#45;&gt;4956839213027892838 -->
<g id="edge26" class="edge">
<title>5153571809276808274&#45;&gt;4956839213027892838</title>
<path fill="none" stroke="black" d="M1159.61,-167.15C1155.4,-177.31 1150.65,-190.56 1148.5,-202.89 1135.12,-279.91 1144.12,-372.01 1150.92,-421.31"/>
<polygon fill="black" stroke="black" points="1147.44,-421.7 1152.32,-431.1 1154.37,-420.71 1147.44,-421.7"/>
</g>
<!-- &#45;6630123127773411285 -->
<g id="node54" class="node">
<title>&#45;6630123127773411285</title>
<ellipse fill="none" stroke="black" cx="1206.5" cy="-251.8" rx="48.91" ry="48.91"/>
<text text-anchor="middle" x="1206.5" y="-246" font-family="Helvetica,sans-Serif" font-size="14.00">transpose</text>
</g>
<!-- 5153571809276808274&#45;&gt;&#45;6630123127773411285 -->
<g id="edge54" class="edge">
<title>5153571809276808274&#45;&gt;&#45;6630123127773411285</title>
<path fill="none" stroke="black" d="M1174.12,-167.01C1177.19,-174.94 1181.02,-184.86 1184.96,-195.07"/>
<polygon fill="black" stroke="black" points="1181.67,-196.26 1188.54,-204.33 1188.2,-193.74 1181.67,-196.26"/>
</g>
<!-- 4165714396594751596 -->
<g id="node36" class="node">
<title>4165714396594751596</title>
<polygon fill="none" stroke="black" points="1222.5,-372.71 1168.5,-372.71 1168.5,-336.71 1222.5,-336.71 1222.5,-372.71"/>
<text text-anchor="middle" x="1195.5" y="-348.91" font-family="Helvetica,sans-Serif" font-size="14.00">(2, 2)</text>
</g>
<!-- 4165714396594751596&#45;&gt;4956839213027892838 -->
<g id="edge27" class="edge">
<title>4165714396594751596&#45;&gt;4956839213027892838</title>
<path fill="none" stroke="black" d="M1188.89,-372.83C1183.58,-386.57 1175.95,-406.29 1169.44,-423.15"/>
<polygon fill="black" stroke="black" points="1166.24,-421.72 1165.9,-432.31 1172.77,-424.24 1166.24,-421.72"/>
</g>
<!-- &#45;4499091398492392251 -->
<g id="node37" class="node">
<title>&#45;4499091398492392251</title>
<ellipse fill="none" stroke="black" cx="58.5" cy="-47.45" rx="47.45" ry="47.45"/>
<text text-anchor="middle" x="58.5" y="-41.65" font-family="Helvetica,sans-Serif" font-size="14.00">ones_like</text>
</g>
<!-- &#45;4499091398492392251&#45;&gt;&#45;3874085723076636144 -->
<g id="edge28" class="edge">
<title>&#45;4499091398492392251&#45;&gt;&#45;3874085723076636144</title>
<path fill="none" stroke="black" d="M58.5,-95.26C58.5,-103.49 58.5,-111.83 58.5,-119.37"/>
<polygon fill="black" stroke="black" points="55.01,-119.26 58.5,-129.27 62.01,-119.27 55.01,-119.26"/>
</g>
<!-- &#45;4658129609037867771 -->
<g id="node38" class="node">
<title>&#45;4658129609037867771</title>
<ellipse fill="none" stroke="black" cx="368.5" cy="-251.8" rx="47.45" ry="47.45"/>
<text text-anchor="middle" x="368.5" y="-246" font-family="Helvetica,sans-Serif" font-size="14.00">ones_like</text>
</g>
<!-- &#45;4658129609037867771&#45;&gt;&#45;8767159752049332510 -->
<g id="edge29" class="edge">
<title>&#45;4658129609037867771&#45;&gt;&#45;8767159752049332510</title>
<path fill="none" stroke="black" d="M358.53,-298.53C356.53,-307.75 354.47,-317.17 352.64,-325.57"/>
<polygon fill="black" stroke="black" points="349.26,-324.62 350.55,-335.14 356.1,-326.12 349.26,-324.62"/>
</g>
<!-- 6824949984518192932 -->
<g id="node39" class="node">
<title>6824949984518192932</title>
<ellipse fill="none" stroke="black" cx="634.5" cy="-251.8" rx="47.45" ry="47.45"/>
<text text-anchor="middle" x="634.5" y="-246" font-family="Helvetica,sans-Serif" font-size="14.00">ones_like</text>
</g>
<!-- 6824949984518192932&#45;&gt;&#45;2259518995947334085 -->
<g id="edge30" class="edge">
<title>6824949984518192932&#45;&gt;&#45;2259518995947334085</title>
<path fill="none" stroke="black" d="M624.53,-298.53C622.53,-307.75 620.47,-317.17 618.64,-325.57"/>
<polygon fill="black" stroke="black" points="615.26,-324.62 616.55,-335.14 622.1,-326.12 615.26,-324.62"/>
</g>
<!-- 7669472157514679256 -->
<g id="node40" class="node">
<title>7669472157514679256</title>
<ellipse fill="none" stroke="black" cx="191.5" cy="-47.45" rx="47.45" ry="47.45"/>
<text text-anchor="middle" x="191.5" y="-41.65" font-family="Helvetica,sans-Serif" font-size="14.00">ones_like</text>
</g>
<!-- 7669472157514679256&#45;&gt;&#45;1912786186832513709 -->
<g id="edge31" class="edge">
<title>7669472157514679256&#45;&gt;&#45;1912786186832513709</title>
<path fill="none" stroke="black" d="M191.5,-95.26C191.5,-103.49 191.5,-111.83 191.5,-119.37"/>
<polygon fill="black" stroke="black" points="188.01,-119.26 191.5,-129.27 195.01,-119.27 188.01,-119.26"/>
</g>
<!-- 6632632745242358613 -->
<g id="node41" class="node">
<title>6632632745242358613</title>
<ellipse fill="none" stroke="black" cx="748.5" cy="-47.45" rx="47.45" ry="47.45"/>
<text text-anchor="middle" x="748.5" y="-41.65" font-family="Helvetica,sans-Serif" font-size="14.00">ones_like</text>
</g>
<!-- 6632632745242358613&#45;&gt;7242526474919973413 -->
<g id="edge32" class="edge">
<title>6632632745242358613&#45;&gt;7242526474919973413</title>
<path fill="none" stroke="black" d="M748.5,-95.26C748.5,-103.49 748.5,-111.83 748.5,-119.37"/>
<polygon fill="black" stroke="black" points="745.01,-119.26 748.5,-129.27 752.01,-119.27 745.01,-119.26"/>
</g>
<!-- &#45;4729389117895500428 -->
<g id="node42" class="node">
<title>&#45;4729389117895500428</title>
<ellipse fill="none" stroke="black" cx="920.5" cy="-47.45" rx="47.45" ry="47.45"/>
<text text-anchor="middle" x="920.5" y="-41.65" font-family="Helvetica,sans-Serif" font-size="14.00">ones_like</text>
</g>
<!-- &#45;4729389117895500428&#45;&gt;&#45;4696576842687579778 -->
<g id="edge33" class="edge">
<title>&#45;4729389117895500428&#45;&gt;&#45;4696576842687579778</title>
<path fill="none" stroke="black" d="M920.5,-95.26C920.5,-103.49 920.5,-111.83 920.5,-119.37"/>
<polygon fill="black" stroke="black" points="917.01,-119.26 920.5,-129.27 924.01,-119.27 917.01,-119.26"/>
</g>
<!-- &#45;683294535619863037 -->
<g id="node43" class="node">
<title>&#45;683294535619863037</title>
<ellipse fill="none" stroke="black" cx="481.5" cy="-47.45" rx="47.45" ry="47.45"/>
<text text-anchor="middle" x="481.5" y="-41.65" font-family="Helvetica,sans-Serif" font-size="14.00">ones_like</text>
</g>
<!-- &#45;683294535619863037&#45;&gt;3539005082147506215 -->
<g id="edge34" class="edge">
<title>&#45;683294535619863037&#45;&gt;3539005082147506215</title>
<path fill="none" stroke="black" d="M481.5,-95.26C481.5,-103.49 481.5,-111.83 481.5,-119.37"/>
<polygon fill="black" stroke="black" points="478.01,-119.26 481.5,-129.27 485.01,-119.27 478.01,-119.26"/>
</g>
<!-- 3556024636819029571 -->
<g id="node44" class="node">
<title>3556024636819029571</title>
<ellipse fill="none" stroke="black" cx="1054.5" cy="-251.8" rx="47.45" ry="47.45"/>
<text text-anchor="middle" x="1054.5" y="-246" font-family="Helvetica,sans-Serif" font-size="14.00">ones_like</text>
</g>
<!-- 3556024636819029571&#45;&gt;&#45;1354068946825190151 -->
<g id="edge35" class="edge">
<title>3556024636819029571&#45;&gt;&#45;1354068946825190151</title>
<path fill="none" stroke="black" d="M1044.53,-298.53C1042.53,-307.75 1040.47,-317.17 1038.64,-325.57"/>
<polygon fill="black" stroke="black" points="1035.26,-324.62 1036.55,-335.14 1042.1,-326.12 1035.26,-324.62"/>
</g>
<!-- &#45;2075422028511006768 -->
<g id="node45" class="node">
<title>&#45;2075422028511006768</title>
<ellipse fill="none" stroke="black" cx="1167.5" cy="-47.45" rx="47.45" ry="47.45"/>
<text text-anchor="middle" x="1167.5" y="-41.65" font-family="Helvetica,sans-Serif" font-size="14.00">ones_like</text>
</g>
<!-- &#45;2075422028511006768&#45;&gt;5153571809276808274 -->
<g id="edge36" class="edge">
<title>&#45;2075422028511006768&#45;&gt;5153571809276808274</title>
<path fill="none" stroke="black" d="M1167.5,-95.26C1167.5,-103.49 1167.5,-111.83 1167.5,-119.37"/>
<polygon fill="black" stroke="black" points="1164.01,-119.26 1167.5,-129.27 1171.01,-119.27 1164.01,-119.26"/>
</g>
<!-- &#45;3812615287685019848&#45;&gt;&#45;4861943135758692822 -->
<g id="edge37" class="edge">
<title>&#45;3812615287685019848&#45;&gt;&#45;4861943135758692822</title>
<path fill="none" stroke="black" d="M67.26,-300.89C66.36,-309.18 65.44,-317.56 64.62,-325.13"/>
<polygon fill="black" stroke="black" points="61.14,-324.75 63.54,-335.07 68.1,-325.51 61.14,-324.75"/>
</g>
<!-- &#45;4616742192833592890&#45;&gt;1645697620343305603 -->
<g id="edge39" class="edge">
<title>&#45;4616742192833592890&#45;&gt;1645697620343305603</title>
<path fill="none" stroke="black" d="M254.5,-301.18C254.5,-309.32 254.5,-317.52 254.5,-324.96"/>
<polygon fill="black" stroke="black" points="251.01,-324.71 254.5,-334.71 258.01,-324.71 251.01,-324.71"/>
</g>
<!-- 954794794428754292&#45;&gt;&#45;3247376408629390763 -->
<g id="edge41" class="edge">
<title>954794794428754292&#45;&gt;&#45;3247376408629390763</title>
<path fill="none" stroke="black" d="M520.5,-301.18C520.5,-309.32 520.5,-317.52 520.5,-324.96"/>
<polygon fill="black" stroke="black" points="517.01,-324.71 520.5,-334.71 524.01,-324.71 517.01,-324.71"/>
</g>
<!-- 5887381090334330637&#45;&gt;4988205516205695230 -->
<g id="edge43" class="edge">
<title>5887381090334330637&#45;&gt;4988205516205695230</title>
<path fill="none" stroke="black" d="M341.74,-506.71C340.92,-515 340.09,-523.38 339.34,-530.95"/>
<polygon fill="black" stroke="black" points="335.86,-530.59 338.35,-540.89 342.82,-531.28 335.86,-530.59"/>
</g>
<!-- &#45;1962775103449099230&#45;&gt;&#45;6950897801401857961 -->
<g id="edge45" class="edge">
<title>&#45;1962775103449099230&#45;&gt;&#45;6950897801401857961</title>
<path fill="none" stroke="black" d="M781.26,-300.89C780.36,-309.18 779.44,-317.56 778.62,-325.13"/>
<polygon fill="black" stroke="black" points="775.14,-324.75 777.54,-335.07 782.1,-325.51 775.14,-324.75"/>
</g>
<!-- &#45;2999614515721419873&#45;&gt;2204414860350629161 -->
<g id="edge47" class="edge">
<title>&#45;2999614515721419873&#45;&gt;2204414860350629161</title>
<path fill="none" stroke="black" d="M1027.74,-506.71C1026.92,-515 1026.09,-523.38 1025.34,-530.95"/>
<polygon fill="black" stroke="black" points="1021.86,-530.59 1024.35,-540.89 1028.82,-531.28 1021.86,-530.59"/>
</g>
<!-- &#45;839638251897899426&#45;&gt;2551147669465449537 -->
<g id="edge49" class="edge">
<title>&#45;839638251897899426&#45;&gt;2551147669465449537</title>
<path fill="none" stroke="black" d="M607.74,-506.71C606.92,-515 606.09,-523.38 605.34,-530.95"/>
<polygon fill="black" stroke="black" points="601.86,-530.59 604.35,-540.89 608.82,-531.28 601.86,-530.59"/>
</g>
<!-- &#45;6471084917227935765&#45;&gt;9058788425567447962 -->
<g id="edge51" class="edge">
<title>&#45;6471084917227935765&#45;&gt;9058788425567447962</title>
<path fill="none" stroke="black" d="M940.5,-301.18C940.5,-309.32 940.5,-317.52 940.5,-324.96"/>
<polygon fill="black" stroke="black" points="937.01,-324.71 940.5,-334.71 944.01,-324.71 937.01,-324.71"/>
</g>
<!-- &#45;6630123127773411285&#45;&gt;4165714396594751596 -->
<g id="edge53" class="edge">
<title>&#45;6630123127773411285&#45;&gt;4165714396594751596</title>
<path fill="none" stroke="black" d="M1201.26,-300.89C1200.36,-309.18 1199.44,-317.56 1198.62,-325.13"/>
<polygon fill="black" stroke="black" points="1195.14,-324.75 1197.54,-335.07 1202.1,-325.51 1195.14,-324.75"/>
</g>
</g>
</svg>
