<?xml version="1.0" encoding="UTF-8" standalone="no"?>
<!DOCTYPE svg PUBLIC "-//W3C//DTD SVG 1.1//EN"
 "http://www.w3.org/Graphics/SVG/1.1/DTD/svg11.dtd">
<!-- Generated by graphviz version 9.0.0 (20230911.1827)
 -->
<!-- Pages: 1 -->
<svg width="1110pt" height="368pt"
 viewBox="0.00 0.00 1109.99 368.03" xmlns="http://www.w3.org/2000/svg" xmlns:xlink="http://www.w3.org/1999/xlink">
<g id="graph0" class="graph" transform="scale(1 1) rotate(0) translate(4 364.03)">
<polygon fill="white" stroke="none" points="-4,4 -4,-364.03 1105.99,-364.03 1105.99,4 -4,4"/>
<!-- 8663624368372397782 -->
<g id="node1" class="node">
<title>8663624368372397782</title>
<polygon fill="none" stroke="black" points="91.99,-201.99 37.99,-201.99 37.99,-165.99 91.99,-165.99 91.99,-201.99"/>
<text text-anchor="middle" x="64.99" y="-178.19" font-family="Helvetica,sans-Serif" font-size="14.00">(0, 0)</text>
</g>
<!-- &#45;7646505010600958204 -->
<g id="node2" class="node">
<title>&#45;7646505010600958204</title>
<polygon fill="none" stroke="black" points="91.99,-281.01 37.99,-281.01 37.99,-245.01 91.99,-245.01 91.99,-281.01"/>
<text text-anchor="middle" x="64.99" y="-257.21" font-family="Helvetica,sans-Serif" font-size="14.00">(0, 0)</text>
</g>
<!-- 8663624368372397782&#45;&gt;&#45;7646505010600958204 -->
<g id="edge1" class="edge">
<title>8663624368372397782&#45;&gt;&#45;7646505010600958204</title>
<path fill="none" stroke="black" d="M64.99,-202.47C64.99,-211.53 64.99,-222.83 64.99,-233.14"/>
<polygon fill="black" stroke="black" points="61.49,-233.09 64.99,-243.09 68.49,-233.09 61.49,-233.09"/>
</g>
<!-- 8945429815924046687 -->
<g id="node3" class="node">
<title>8945429815924046687</title>
<ellipse fill="none" stroke="black" cx="214.99" cy="-263.01" rx="25.02" ry="25.02"/>
<text text-anchor="middle" x="214.99" y="-257.21" font-family="Helvetica,sans-Serif" font-size="14.00">add</text>
</g>
<!-- &#45;1138864254498959779 -->
<g id="node4" class="node">
<title>&#45;1138864254498959779</title>
<polygon fill="none" stroke="black" points="241.99,-360.03 187.99,-360.03 187.99,-324.03 241.99,-324.03 241.99,-360.03"/>
<text text-anchor="middle" x="214.99" y="-336.23" font-family="Helvetica,sans-Serif" font-size="14.00">(0, 1)</text>
</g>
<!-- 8945429815924046687&#45;&gt;&#45;1138864254498959779 -->
<g id="edge2" class="edge">
<title>8945429815924046687&#45;&gt;&#45;1138864254498959779</title>
<path fill="none" stroke="black" d="M214.99,-288.38C214.99,-295.99 214.99,-304.46 214.99,-312.33"/>
<polygon fill="black" stroke="black" points="211.49,-312.14 214.99,-322.14 218.49,-312.14 211.49,-312.14"/>
</g>
<!-- &#45;8767159752049332510 -->
<g id="node5" class="node">
<title>&#45;8767159752049332510</title>
<polygon fill="none" stroke="black" points="241.99,-201.99 187.99,-201.99 187.99,-165.99 241.99,-165.99 241.99,-201.99"/>
<text text-anchor="middle" x="214.99" y="-178.19" font-family="Helvetica,sans-Serif" font-size="14.00">(0, 1)</text>
</g>
<!-- &#45;8767159752049332510&#45;&gt;8945429815924046687 -->
<g id="edge3" class="edge">
<title>&#45;8767159752049332510&#45;&gt;8945429815924046687</title>
<path fill="none" stroke="black" d="M214.99,-202.47C214.99,-209.53 214.99,-217.94 214.99,-226.2"/>
<polygon fill="black" stroke="black" points="211.49,-226.08 214.99,-236.08 218.49,-226.08 211.49,-226.08"/>
</g>
<!-- &#45;3745010674655972754 -->
<g id="node11" class="node">
<title>&#45;3745010674655972754</title>
<ellipse fill="none" stroke="black" cx="286.99" cy="-263.01" rx="25.02" ry="25.02"/>
<text text-anchor="middle" x="286.99" y="-257.21" font-family="Helvetica,sans-Serif" font-size="14.00">add</text>
</g>
<!-- &#45;8767159752049332510&#45;&gt;&#45;3745010674655972754 -->
<g id="edge9" class="edge">
<title>&#45;8767159752049332510&#45;&gt;&#45;3745010674655972754</title>
<path fill="none" stroke="black" d="M231.33,-202.47C240.5,-212.27 252.12,-224.7 262.37,-235.67"/>
<polygon fill="black" stroke="black" points="259.8,-238.05 269.19,-242.96 264.92,-233.27 259.8,-238.05"/>
</g>
<!-- &#45;1912786186832513709 -->
<g id="node6" class="node">
<title>&#45;1912786186832513709</title>
<polygon fill="none" stroke="black" points="313.99,-201.99 259.99,-201.99 259.99,-165.99 313.99,-165.99 313.99,-201.99"/>
<text text-anchor="middle" x="286.99" y="-178.19" font-family="Helvetica,sans-Serif" font-size="14.00">(1, 0)</text>
</g>
<!-- &#45;1912786186832513709&#45;&gt;8945429815924046687 -->
<g id="edge4" class="edge">
<title>&#45;1912786186832513709&#45;&gt;8945429815924046687</title>
<path fill="none" stroke="black" d="M270.66,-202.47C261.49,-212.27 249.87,-224.7 239.62,-235.67"/>
<polygon fill="black" stroke="black" points="237.07,-233.27 232.8,-242.96 242.19,-238.05 237.07,-233.27"/>
</g>
<!-- &#45;1912786186832513709&#45;&gt;&#45;3745010674655972754 -->
<g id="edge10" class="edge">
<title>&#45;1912786186832513709&#45;&gt;&#45;3745010674655972754</title>
<path fill="none" stroke="black" d="M286.99,-202.47C286.99,-209.53 286.99,-217.94 286.99,-226.2"/>
<polygon fill="black" stroke="black" points="283.49,-226.08 286.99,-236.08 290.49,-226.08 283.49,-226.08"/>
</g>
<!-- 6576372588828271470 -->
<g id="node7" class="node">
<title>6576372588828271470</title>
<ellipse fill="none" stroke="black" cx="441.99" cy="-263.01" rx="25.02" ry="25.02"/>
<text text-anchor="middle" x="441.99" y="-257.21" font-family="Helvetica,sans-Serif" font-size="14.00">add</text>
</g>
<!-- 8016448407253527343 -->
<g id="node8" class="node">
<title>8016448407253527343</title>
<polygon fill="none" stroke="black" points="468.99,-360.03 414.99,-360.03 414.99,-324.03 468.99,-324.03 468.99,-360.03"/>
<text text-anchor="middle" x="441.99" y="-336.23" font-family="Helvetica,sans-Serif" font-size="14.00">(0, 2)</text>
</g>
<!-- 6576372588828271470&#45;&gt;8016448407253527343 -->
<g id="edge5" class="edge">
<title>6576372588828271470&#45;&gt;8016448407253527343</title>
<path fill="none" stroke="black" d="M441.99,-288.38C441.99,-295.99 441.99,-304.46 441.99,-312.33"/>
<polygon fill="black" stroke="black" points="438.49,-312.14 441.99,-322.14 445.49,-312.14 438.49,-312.14"/>
</g>
<!-- &#45;2259518995947334085 -->
<g id="node9" class="node">
<title>&#45;2259518995947334085</title>
<polygon fill="none" stroke="black" points="468.99,-201.99 414.99,-201.99 414.99,-165.99 468.99,-165.99 468.99,-201.99"/>
<text text-anchor="middle" x="441.99" y="-178.19" font-family="Helvetica,sans-Serif" font-size="14.00">(0, 2)</text>
</g>
<!-- &#45;2259518995947334085&#45;&gt;6576372588828271470 -->
<g id="edge6" class="edge">
<title>&#45;2259518995947334085&#45;&gt;6576372588828271470</title>
<path fill="none" stroke="black" d="M441.99,-202.47C441.99,-209.53 441.99,-217.94 441.99,-226.2"/>
<polygon fill="black" stroke="black" points="438.49,-226.08 441.99,-236.08 445.49,-226.08 438.49,-226.08"/>
</g>
<!-- &#45;1091043585271479094 -->
<g id="node19" class="node">
<title>&#45;1091043585271479094</title>
<ellipse fill="none" stroke="black" cx="513.99" cy="-263.01" rx="25.02" ry="25.02"/>
<text text-anchor="middle" x="513.99" y="-257.21" font-family="Helvetica,sans-Serif" font-size="14.00">add</text>
</g>
<!-- &#45;2259518995947334085&#45;&gt;&#45;1091043585271479094 -->
<g id="edge16" class="edge">
<title>&#45;2259518995947334085&#45;&gt;&#45;1091043585271479094</title>
<path fill="none" stroke="black" d="M458.33,-202.47C467.5,-212.27 479.12,-224.7 489.37,-235.67"/>
<polygon fill="black" stroke="black" points="486.8,-238.05 496.19,-242.96 491.92,-233.27 486.8,-238.05"/>
</g>
<!-- 3539005082147506215 -->
<g id="node10" class="node">
<title>3539005082147506215</title>
<polygon fill="none" stroke="black" points="540.99,-201.99 486.99,-201.99 486.99,-165.99 540.99,-165.99 540.99,-201.99"/>
<text text-anchor="middle" x="513.99" y="-178.19" font-family="Helvetica,sans-Serif" font-size="14.00">(2, 0)</text>
</g>
<!-- 3539005082147506215&#45;&gt;6576372588828271470 -->
<g id="edge7" class="edge">
<title>3539005082147506215&#45;&gt;6576372588828271470</title>
<path fill="none" stroke="black" d="M497.66,-202.47C488.49,-212.27 476.87,-224.7 466.62,-235.67"/>
<polygon fill="black" stroke="black" points="464.07,-233.27 459.8,-242.96 469.19,-238.05 464.07,-233.27"/>
</g>
<!-- 3539005082147506215&#45;&gt;&#45;1091043585271479094 -->
<g id="edge17" class="edge">
<title>3539005082147506215&#45;&gt;&#45;1091043585271479094</title>
<path fill="none" stroke="black" d="M513.99,-202.47C513.99,-209.53 513.99,-217.94 513.99,-226.2"/>
<polygon fill="black" stroke="black" points="510.49,-226.08 513.99,-236.08 517.49,-226.08 510.49,-226.08"/>
</g>
<!-- &#45;4352987659533381195 -->
<g id="node12" class="node">
<title>&#45;4352987659533381195</title>
<polygon fill="none" stroke="black" points="313.99,-360.03 259.99,-360.03 259.99,-324.03 313.99,-324.03 313.99,-360.03"/>
<text text-anchor="middle" x="286.99" y="-336.23" font-family="Helvetica,sans-Serif" font-size="14.00">(1, 0)</text>
</g>
<!-- &#45;3745010674655972754&#45;&gt;&#45;4352987659533381195 -->
<g id="edge8" class="edge">
<title>&#45;3745010674655972754&#45;&gt;&#45;4352987659533381195</title>
<path fill="none" stroke="black" d="M286.99,-288.38C286.99,-295.99 286.99,-304.46 286.99,-312.33"/>
<polygon fill="black" stroke="black" points="283.49,-312.14 286.99,-322.14 290.49,-312.14 283.49,-312.14"/>
</g>
<!-- 2176312319744864515 -->
<g id="node13" class="node">
<title>2176312319744864515</title>
<polygon fill="none" stroke="black" points="690.99,-201.99 636.99,-201.99 636.99,-165.99 690.99,-165.99 690.99,-201.99"/>
<text text-anchor="middle" x="663.99" y="-178.19" font-family="Helvetica,sans-Serif" font-size="14.00">(1, 1)</text>
</g>
<!-- 9200682385203474055 -->
<g id="node14" class="node">
<title>9200682385203474055</title>
<polygon fill="none" stroke="black" points="690.99,-281.01 636.99,-281.01 636.99,-245.01 690.99,-245.01 690.99,-281.01"/>
<text text-anchor="middle" x="663.99" y="-257.21" font-family="Helvetica,sans-Serif" font-size="14.00">(1, 1)</text>
</g>
<!-- 2176312319744864515&#45;&gt;9200682385203474055 -->
<g id="edge11" class="edge">
<title>2176312319744864515&#45;&gt;9200682385203474055</title>
<path fill="none" stroke="black" d="M663.99,-202.47C663.99,-211.53 663.99,-222.83 663.99,-233.14"/>
<polygon fill="black" stroke="black" points="660.49,-233.09 663.99,-243.09 667.49,-233.09 660.49,-233.09"/>
</g>
<!-- 2302872123643399178 -->
<g id="node15" class="node">
<title>2302872123643399178</title>
<ellipse fill="none" stroke="black" cx="813.99" cy="-263.01" rx="25.02" ry="25.02"/>
<text text-anchor="middle" x="813.99" y="-257.21" font-family="Helvetica,sans-Serif" font-size="14.00">add</text>
</g>
<!-- &#45;7136778315388447264 -->
<g id="node16" class="node">
<title>&#45;7136778315388447264</title>
<polygon fill="none" stroke="black" points="840.99,-360.03 786.99,-360.03 786.99,-324.03 840.99,-324.03 840.99,-360.03"/>
<text text-anchor="middle" x="813.99" y="-336.23" font-family="Helvetica,sans-Serif" font-size="14.00">(1, 2)</text>
</g>
<!-- 2302872123643399178&#45;&gt;&#45;7136778315388447264 -->
<g id="edge12" class="edge">
<title>2302872123643399178&#45;&gt;&#45;7136778315388447264</title>
<path fill="none" stroke="black" d="M813.99,-288.38C813.99,-295.99 813.99,-304.46 813.99,-312.33"/>
<polygon fill="black" stroke="black" points="810.49,-312.14 813.99,-322.14 817.49,-312.14 810.49,-312.14"/>
</g>
<!-- &#45;1354068946825190151 -->
<g id="node17" class="node">
<title>&#45;1354068946825190151</title>
<polygon fill="none" stroke="black" points="840.99,-201.99 786.99,-201.99 786.99,-165.99 840.99,-165.99 840.99,-201.99"/>
<text text-anchor="middle" x="813.99" y="-178.19" font-family="Helvetica,sans-Serif" font-size="14.00">(2, 1)</text>
</g>
<!-- &#45;1354068946825190151&#45;&gt;2302872123643399178 -->
<g id="edge13" class="edge">
<title>&#45;1354068946825190151&#45;&gt;2302872123643399178</title>
<path fill="none" stroke="black" d="M813.99,-202.47C813.99,-209.53 813.99,-217.94 813.99,-226.2"/>
<polygon fill="black" stroke="black" points="810.49,-226.08 813.99,-236.08 817.49,-226.08 810.49,-226.08"/>
</g>
<!-- 5115877423573368358 -->
<g id="node21" class="node">
<title>5115877423573368358</title>
<ellipse fill="none" stroke="black" cx="885.99" cy="-263.01" rx="25.02" ry="25.02"/>
<text text-anchor="middle" x="885.99" y="-257.21" font-family="Helvetica,sans-Serif" font-size="14.00">add</text>
</g>
<!-- &#45;1354068946825190151&#45;&gt;5115877423573368358 -->
<g id="edge19" class="edge">
<title>&#45;1354068946825190151&#45;&gt;5115877423573368358</title>
<path fill="none" stroke="black" d="M830.33,-202.47C839.5,-212.27 851.12,-224.7 861.37,-235.67"/>
<polygon fill="black" stroke="black" points="858.8,-238.05 868.19,-242.96 863.92,-233.27 858.8,-238.05"/>
</g>
<!-- &#45;4696576842687579778 -->
<g id="node18" class="node">
<title>&#45;4696576842687579778</title>
<polygon fill="none" stroke="black" points="912.99,-201.99 858.99,-201.99 858.99,-165.99 912.99,-165.99 912.99,-201.99"/>
<text text-anchor="middle" x="885.99" y="-178.19" font-family="Helvetica,sans-Serif" font-size="14.00">(1, 2)</text>
</g>
<!-- &#45;4696576842687579778&#45;&gt;2302872123643399178 -->
<g id="edge14" class="edge">
<title>&#45;4696576842687579778&#45;&gt;2302872123643399178</title>
<path fill="none" stroke="black" d="M869.66,-202.47C860.49,-212.27 848.87,-224.7 838.62,-235.67"/>
<polygon fill="black" stroke="black" points="836.07,-233.27 831.8,-242.96 841.19,-238.05 836.07,-233.27"/>
</g>
<!-- &#45;4696576842687579778&#45;&gt;5115877423573368358 -->
<g id="edge20" class="edge">
<title>&#45;4696576842687579778&#45;&gt;5115877423573368358</title>
<path fill="none" stroke="black" d="M885.99,-202.47C885.99,-209.53 885.99,-217.94 885.99,-226.2"/>
<polygon fill="black" stroke="black" points="882.49,-226.08 885.99,-236.08 889.49,-226.08 882.49,-226.08"/>
</g>
<!-- 5497160992431006857 -->
<g id="node20" class="node">
<title>5497160992431006857</title>
<polygon fill="none" stroke="black" points="540.99,-360.03 486.99,-360.03 486.99,-324.03 540.99,-324.03 540.99,-360.03"/>
<text text-anchor="middle" x="513.99" y="-336.23" font-family="Helvetica,sans-Serif" font-size="14.00">(2, 0)</text>
</g>
<!-- &#45;1091043585271479094&#45;&gt;5497160992431006857 -->
<g id="edge15" class="edge">
<title>&#45;1091043585271479094&#45;&gt;5497160992431006857</title>
<path fill="none" stroke="black" d="M513.99,-288.38C513.99,-295.99 513.99,-304.46 513.99,-312.33"/>
<polygon fill="black" stroke="black" points="510.49,-312.14 513.99,-322.14 517.49,-312.14 510.49,-312.14"/>
</g>
<!-- 7606444365548637154 -->
<g id="node22" class="node">
<title>7606444365548637154</title>
<polygon fill="none" stroke="black" points="912.99,-360.03 858.99,-360.03 858.99,-324.03 912.99,-324.03 912.99,-360.03"/>
<text text-anchor="middle" x="885.99" y="-336.23" font-family="Helvetica,sans-Serif" font-size="14.00">(2, 1)</text>
</g>
<!-- 5115877423573368358&#45;&gt;7606444365548637154 -->
<g id="edge18" class="edge">
<title>5115877423573368358&#45;&gt;7606444365548637154</title>
<path fill="none" stroke="black" d="M885.99,-288.38C885.99,-295.99 885.99,-304.46 885.99,-312.33"/>
<polygon fill="black" stroke="black" points="882.49,-312.14 885.99,-322.14 889.49,-312.14 882.49,-312.14"/>
</g>
<!-- &#45;5153819555968077544 -->
<g id="node23" class="node">
<title>&#45;5153819555968077544</title>
<polygon fill="none" stroke="black" points="1063.99,-201.99 1009.99,-201.99 1009.99,-165.99 1063.99,-165.99 1063.99,-201.99"/>
<text text-anchor="middle" x="1036.99" y="-178.19" font-family="Helvetica,sans-Serif" font-size="14.00">(2, 2)</text>
</g>
<!-- 2713370336575940788 -->
<g id="node24" class="node">
<title>2713370336575940788</title>
<polygon fill="none" stroke="black" points="1063.99,-281.01 1009.99,-281.01 1009.99,-245.01 1063.99,-245.01 1063.99,-281.01"/>
<text text-anchor="middle" x="1036.99" y="-257.21" font-family="Helvetica,sans-Serif" font-size="14.00">(2, 2)</text>
</g>
<!-- &#45;5153819555968077544&#45;&gt;2713370336575940788 -->
<g id="edge21" class="edge">
<title>&#45;5153819555968077544&#45;&gt;2713370336575940788</title>
<path fill="none" stroke="black" d="M1036.99,-202.47C1036.99,-211.53 1036.99,-222.83 1036.99,-233.14"/>
<polygon fill="black" stroke="black" points="1033.49,-233.09 1036.99,-243.09 1040.49,-233.09 1033.49,-233.09"/>
</g>
<!-- &#45;4658129609037867771 -->
<g id="node25" class="node">
<title>&#45;4658129609037867771</title>
<ellipse fill="none" stroke="black" cx="194.99" cy="-64.99" rx="47.45" ry="47.45"/>
<text text-anchor="middle" x="194.99" y="-59.19" font-family="Helvetica,sans-Serif" font-size="14.00">ones_like</text>
</g>
<!-- &#45;4658129609037867771&#45;&gt;&#45;8767159752049332510 -->
<g id="edge22" class="edge">
<title>&#45;4658129609037867771&#45;&gt;&#45;8767159752049332510</title>
<path fill="none" stroke="black" d="M202.9,-112.23C205.33,-126.46 207.94,-141.71 210.1,-154.39"/>
<polygon fill="black" stroke="black" points="206.64,-154.88 211.77,-164.15 213.54,-153.7 206.64,-154.88"/>
</g>
<!-- 6824949984518192932 -->
<g id="node26" class="node">
<title>6824949984518192932</title>
<ellipse fill="none" stroke="black" cx="420.99" cy="-64.99" rx="47.45" ry="47.45"/>
<text text-anchor="middle" x="420.99" y="-59.19" font-family="Helvetica,sans-Serif" font-size="14.00">ones_like</text>
</g>
<!-- 6824949984518192932&#45;&gt;&#45;2259518995947334085 -->
<g id="edge23" class="edge">
<title>6824949984518192932&#45;&gt;&#45;2259518995947334085</title>
<path fill="none" stroke="black" d="M429.23,-111.9C431.79,-126.16 434.54,-141.47 436.83,-154.22"/>
<polygon fill="black" stroke="black" points="433.38,-154.82 438.59,-164.05 440.27,-153.58 433.38,-154.82"/>
</g>
<!-- 7669472157514679256 -->
<g id="node27" class="node">
<title>7669472157514679256</title>
<ellipse fill="none" stroke="black" cx="307.99" cy="-64.99" rx="47.45" ry="47.45"/>
<text text-anchor="middle" x="307.99" y="-59.19" font-family="Helvetica,sans-Serif" font-size="14.00">ones_like</text>
</g>
<!-- 7669472157514679256&#45;&gt;&#45;1912786186832513709 -->
<g id="edge24" class="edge">
<title>7669472157514679256&#45;&gt;&#45;1912786186832513709</title>
<path fill="none" stroke="black" d="M299.75,-111.9C297.19,-126.16 294.45,-141.47 292.16,-154.22"/>
<polygon fill="black" stroke="black" points="288.72,-153.58 290.39,-164.05 295.61,-154.82 288.72,-153.58"/>
</g>
<!-- &#45;4729389117895500428 -->
<g id="node28" class="node">
<title>&#45;4729389117895500428</title>
<ellipse fill="none" stroke="black" cx="906.99" cy="-64.99" rx="47.45" ry="47.45"/>
<text text-anchor="middle" x="906.99" y="-59.19" font-family="Helvetica,sans-Serif" font-size="14.00">ones_like</text>
</g>
<!-- &#45;4729389117895500428&#45;&gt;&#45;4696576842687579778 -->
<g id="edge25" class="edge">
<title>&#45;4729389117895500428&#45;&gt;&#45;4696576842687579778</title>
<path fill="none" stroke="black" d="M898.75,-111.9C896.19,-126.16 893.45,-141.47 891.16,-154.22"/>
<polygon fill="black" stroke="black" points="887.72,-153.58 889.39,-164.05 894.61,-154.82 887.72,-153.58"/>
</g>
<!-- &#45;683294535619863037 -->
<g id="node29" class="node">
<title>&#45;683294535619863037</title>
<ellipse fill="none" stroke="black" cx="533.99" cy="-64.99" rx="47.45" ry="47.45"/>
<text text-anchor="middle" x="533.99" y="-59.19" font-family="Helvetica,sans-Serif" font-size="14.00">ones_like</text>
</g>
<!-- &#45;683294535619863037&#45;&gt;3539005082147506215 -->
<g id="edge26" class="edge">
<title>&#45;683294535619863037&#45;&gt;3539005082147506215</title>
<path fill="none" stroke="black" d="M526.09,-112.23C523.66,-126.46 521.05,-141.71 518.88,-154.39"/>
<polygon fill="black" stroke="black" points="515.45,-153.7 517.21,-164.15 522.35,-154.88 515.45,-153.7"/>
</g>
<!-- 3556024636819029571 -->
<g id="node30" class="node">
<title>3556024636819029571</title>
<ellipse fill="none" stroke="black" cx="793.99" cy="-64.99" rx="47.45" ry="47.45"/>
<text text-anchor="middle" x="793.99" y="-59.19" font-family="Helvetica,sans-Serif" font-size="14.00">ones_like</text>
</g>
<!-- 3556024636819029571&#45;&gt;&#45;1354068946825190151 -->
<g id="edge27" class="edge">
<title>3556024636819029571&#45;&gt;&#45;1354068946825190151</title>
<path fill="none" stroke="black" d="M801.9,-112.23C804.33,-126.46 806.94,-141.71 809.1,-154.39"/>
<polygon fill="black" stroke="black" points="805.64,-154.88 810.77,-164.15 812.54,-153.7 805.64,-154.88"/>
</g>
<!-- &#45;2443980150265621969 -->
<g id="node31" class="node">
<title>&#45;2443980150265621969</title>
<ellipse fill="none" stroke="black" cx="64.99" cy="-64.99" rx="64.99" ry="64.99"/>
<text text-anchor="middle" x="64.99" y="-59.19" font-family="Helvetica,sans-Serif" font-size="14.00">ones_like&#45;add</text>
</g>
<!-- &#45;2443980150265621969&#45;&gt;8663624368372397782 -->
<g id="edge28" class="edge">
<title>&#45;2443980150265621969&#45;&gt;8663624368372397782</title>
<path fill="none" stroke="black" d="M64.99,-130.31C64.99,-138.75 64.99,-147.02 64.99,-154.42"/>
<polygon fill="black" stroke="black" points="61.49,-154.4 64.99,-164.4 68.49,-154.4 61.49,-154.4"/>
</g>
<!-- 5261425592993836262 -->
<g id="node32" class="node">
<title>5261425592993836262</title>
<ellipse fill="none" stroke="black" cx="1036.99" cy="-64.99" rx="64.99" ry="64.99"/>
<text text-anchor="middle" x="1036.99" y="-59.19" font-family="Helvetica,sans-Serif" font-size="14.00">ones_like&#45;add</text>
</g>
<!-- 5261425592993836262&#45;&gt;&#45;5153819555968077544 -->
<g id="edge29" class="edge">
<title>5261425592993836262&#45;&gt;&#45;5153819555968077544</title>
<path fill="none" stroke="black" d="M1036.99,-130.31C1036.99,-138.75 1036.99,-147.02 1036.99,-154.42"/>
<polygon fill="black" stroke="black" points="1033.49,-154.4 1036.99,-164.4 1040.49,-154.4 1033.49,-154.4"/>
</g>
<!-- &#45;5870298550740914602 -->
<g id="node33" class="node">
<title>&#45;5870298550740914602</title>
<ellipse fill="none" stroke="black" cx="663.99" cy="-64.99" rx="64.99" ry="64.99"/>
<text text-anchor="middle" x="663.99" y="-59.19" font-family="Helvetica,sans-Serif" font-size="14.00">ones_like&#45;add</text>
</g>
<!-- &#45;5870298550740914602&#45;&gt;2176312319744864515 -->
<g id="edge30" class="edge">
<title>&#45;5870298550740914602&#45;&gt;2176312319744864515</title>
<path fill="none" stroke="black" d="M663.99,-130.31C663.99,-138.75 663.99,-147.02 663.99,-154.42"/>
<polygon fill="black" stroke="black" points="660.49,-154.4 663.99,-164.4 667.49,-154.4 660.49,-154.4"/>
</g>
</g>
</svg>
