<?xml version="1.0" encoding="UTF-8" standalone="no"?>
<!DOCTYPE svg PUBLIC "-//W3C//DTD SVG 1.1//EN"
 "http://www.w3.org/Graphics/SVG/1.1/DTD/svg11.dtd">
<!-- Generated by graphviz version 9.0.0 (20230911.1827)
 -->
<!-- Pages: 1 -->
<svg width="188pt" height="188pt"
 viewBox="0.00 0.00 187.50 188.00" xmlns="http://www.w3.org/2000/svg" xmlns:xlink="http://www.w3.org/1999/xlink">
<g id="graph0" class="graph" transform="scale(1 1) rotate(0) translate(4 184)">
<polygon fill="white" stroke="none" points="-4,4 -4,-184 183.5,-184 183.5,4 -4,4"/>
<!-- 3804758817933348579 -->
<g id="node1" class="node">
<title>3804758817933348579</title>
<g id="a_node1"><a xlink:title="A Blockwise Layer with 9 Tasks.&#10;Array Shape: (15, 15)&#10;Data Type: float64&#10;Chunk Size: (5, 5)&#10;Chunk Type: numpy.ndarray&#10;">
<polygon fill="none" stroke="black" points="104.5,-180 25.5,-180 25.5,-144 104.5,-144 104.5,-180"/>
<text text-anchor="middle" x="65" y="-153.5" font-family="Helvetica,sans-Serif" font-size="20.00">add&#45;#0</text>
</a>
</g>
</g>
<!-- 6178761823342866603 -->
<g id="node2" class="node">
<title>6178761823342866603</title>
<g id="a_node2"><a xlink:title="A Blockwise Layer with 9 Tasks.&#10;Array Shape: (15, 15)&#10;Data Type: float64&#10;Chunk Size: (5, 5)&#10;Chunk Type: numpy.ndarray&#10;">
<polygon fill="none" stroke="black" points="130,-36 0,-36 0,0 130,0 130,-36"/>
<text text-anchor="middle" x="65" y="-9.5" font-family="Helvetica,sans-Serif" font-size="20.00">ones_like&#45;#1</text>
</a>
</g>
</g>
<!-- 6178761823342866603&#45;&gt;3804758817933348579 -->
<g id="edge1" class="edge">
<title>6178761823342866603&#45;&gt;3804758817933348579</title>
<path fill="none" stroke="black" d="M53.11,-36.28C46.99,-46.24 40.16,-59.27 37,-72 33.15,-87.53 33.15,-92.47 37,-108 39.19,-116.85 43.17,-125.85 47.44,-133.86"/>
<polygon fill="black" stroke="black" points="44.34,-135.49 52.36,-142.41 50.41,-132 44.34,-135.49"/>
</g>
<!-- &#45;3414287256842782907 -->
<g id="node3" class="node">
<title>&#45;3414287256842782907</title>
<g id="a_node3"><a xlink:title="A Blockwise Layer with 9 Tasks.&#10;Array Shape: (15, 15)&#10;Data Type: float64&#10;Chunk Size: (5, 5)&#10;Chunk Type: numpy.ndarray&#10;">
<polygon fill="none" stroke="black" points="179.5,-108 46.5,-108 46.5,-72 179.5,-72 179.5,-108"/>
<text text-anchor="middle" x="113" y="-81.5" font-family="Helvetica,sans-Serif" font-size="20.00">transpose&#45;#2</text>
</a>
</g>
</g>
<!-- 6178761823342866603&#45;&gt;&#45;3414287256842782907 -->
<g id="edge3" class="edge">
<title>6178761823342866603&#45;&gt;&#45;3414287256842782907</title>
<path fill="none" stroke="black" d="M76.87,-36.3C82.27,-44.19 88.79,-53.7 94.8,-62.45"/>
<polygon fill="black" stroke="black" points="91.87,-64.38 100.42,-70.65 97.65,-60.42 91.87,-64.38"/>
</g>
<!-- &#45;3414287256842782907&#45;&gt;3804758817933348579 -->
<g id="edge2" class="edge">
<title>&#45;3414287256842782907&#45;&gt;3804758817933348579</title>
<path fill="none" stroke="black" d="M101.13,-108.3C95.73,-116.19 89.21,-125.7 83.2,-134.45"/>
<polygon fill="black" stroke="black" points="80.35,-132.42 77.58,-142.65 86.13,-136.38 80.35,-132.42"/>
</g>
</g>
</svg>
